<svg width="152" height="132" viewBox="0 0 152 132" fill="none" xmlns="http://www.w3.org/2000/svg">
<g id="Group">
<circle id="Vector" cx="76" cy="66" r="66" fill="#EBF1FF"/>
<rect id="Vector_2" y="110" width="152" height="4" fill="#C2D4FF"/>
<path id="Vector_3" d="M48 46H136V110H48V46Z" fill="#3370FF"/>
<path id="Vector_4" d="M16 46H104V110H16V46Z" fill="#99B8FF"/>
<path id="Vector_5" d="M50 46H70V58H50V46Z" fill="#3370FF"/>
<path id="Vector_6" d="M94.247 102H69.753C68.6976 102 68 101.281 68 100.197V67.8028C68 66.7186 68.699 66 69.753 66H94.2456C95.301 66 96 66.7186 96 67.8028V100.197C95.9836 101.281 95.2859 102 94.247 102Z" fill="white"/>
<path id="Vector_7" d="M78.6675 71H72V78.428H78.6675V71ZM90.789 73.476H83.2122C82.5995 73.476 82 73.012 82 72.2373C82 71.6187 82.4595 71 83.2122 71H90.789C91.4017 71 92 71.464 92 72.2373C92 73.012 91.5405 73.476 90.789 73.476ZM92 87.0947H72V97H92V87.0947Z" fill="#C2D4FF"/>
<path id="Vector_8" d="M152 20L136 46H48L64 20H152Z" fill="#0049F5"/>
<path id="Vector_9" d="M104 46L118 82H136V46H104Z" fill="#0A54FF"/>
<path id="Vector_10" d="M104 46L120 78H152L136 46H104Z" fill="#D6E2FF"/>
<path id="Vector_11" d="M0 14L16 46H104L88 14H0Z" fill="#709BFF"/>
<path id="Vector_12" d="M34 14H54L70 46H50L34 14Z" fill="#0049F5"/>
</g>
</svg>
