<svg xmlns="http://www.w3.org/2000/svg" width="200" height="240" viewBox="0 0 200 240" fill="none">
  <g style="mix-blend-mode:hard-light" opacity="0.07">
    <path fill-rule="evenodd" clip-rule="evenodd" d="M240 120C240 186.274 186.274 240 120 240H44.5714C40.7843 240 37.7143 236.93 37.7143 233.143C37.7143 229.356 40.7843 226.286 44.5714 226.286H51.7714C53.665 226.286 55.2 224.751 55.2 222.857C55.2 221.769 54.7325 220.72 53.903 220.172C21.424 198.697 0 161.851 0 120C0 53.7258 53.7258 0 120 0C186.274 0 240 53.7258 240 120ZM178.395 84.3738C166.924 63.6673 138.001 44.2229 100.983 54.0584C68.1358 62.7858 51.8356 94.9609 51.8357 110.514C51.8358 129.626 78.7754 135.863 109.537 133.274C143.365 130.428 159.245 122.171 185.314 101.982C151.178 120.392 130.97 124.999 101.996 123.029C86.27 121.959 64.2904 116.527 69.6486 92.2915C72.9161 77.5127 89.737 61.7025 112.316 57.6138C148.082 51.1371 171.974 76.4911 178.395 84.3738ZM186.772 105.894C191.691 123.952 186.452 146.508 171.977 164.012C152.252 187.863 121.109 193.419 95.7911 184.657C121.899 182.212 139.097 173.626 154.537 160.485C152.627 161.891 150.644 163.233 148.593 164.504C120.175 182.113 82.2652 181.731 62.1696 158.34C81.2998 163.337 96.6351 164.775 112.298 161.41C86.2538 162.985 62.7472 152.074 51.4286 132.539C65.9577 143.209 99.0994 150.836 133.18 140.556C155.745 133.749 174.347 121.383 186.396 106.746L186.356 106.891C186.482 106.652 186.607 106.413 186.73 106.173C186.744 106.08 186.758 105.987 186.772 105.894Z" fill="url(#paint0_linear_18491_25566)"/>
  </g>
  <defs>
    <linearGradient id="paint0_linear_18491_25566" x1="34.8" y1="1.14297e-05" x2="268.481" y2="38.0083" gradientUnits="userSpaceOnUse">
      <stop stop-color="#1879FF"/>
      <stop offset="1" stop-color="#0658CC"/>
    </linearGradient>
  </defs>
</svg>